<?xml version="1.0" standalone="no"?>
<!DOCTYPE svg PUBLIC "-//W3C//DTD SVG 20010904//EN"
 "http://www.w3.org/TR/2001/REC-SVG-20010904/DTD/svg10.dtd">
<svg version="1.0" xmlns="http://www.w3.org/2000/svg"
 width="1535.000000pt" height="1535.000000pt" viewBox="0 0 1535.000000 1535.000000"
 preserveAspectRatio="xMidYMid meet">
<metadata>
Created by potrace 1.11, written by Peter Selinger 2001-2013
</metadata>
<g transform="translate(0.000000,1535.000000) scale(0.100000,-0.100000)"
fill="#000000" stroke="none">
<path d="M7343 15172 l-333 -167 0 -500 0 -500 -1327 -498 -1328 -497 -337 0
-338 0 0 -335 0 -335 -170 0 -170 0 0 -835 0 -835 170 0 170 0 0 -4830 0
-4830 -335 0 -335 0 0 -505 0 -505 4670 0 4670 0 0 505 0 505 -335 0 -335 0 0
4830 0 4830 170 0 170 0 0 835 0 835 -170 0 -170 0 0 335 0 335 -337 0 -338 0
-1327 497 -1328 498 0 500 0 500 -335 168 c-184 92 -336 167 -338 166 -1 0
-152 -75 -334 -167z m667 -832 l0 -330 -330 0 -330 0 0 330 0 330 330 0 330 0
0 -330z m-2670 -5005 l0 -665 -330 0 -330 0 0 665 0 665 330 0 330 0 0 -665z
m1000 0 l0 -665 -330 0 -330 0 0 665 0 665 330 0 330 0 0 -665z m1000 0 l0
-665 -330 0 -330 0 0 665 0 665 330 0 330 0 0 -665z m1340 0 l0 -665 -330 0
-330 0 0 665 0 665 330 0 330 0 0 -665z m1000 0 l0 -665 -330 0 -330 0 0 665
0 665 330 0 330 0 0 -665z m1000 0 l0 -665 -330 0 -330 0 0 665 0 665 330 0
330 0 0 -665z m-5340 -1665 l0 -660 -330 0 -330 0 0 660 0 660 330 0 330 0 0
-660z m1000 0 l0 -660 -330 0 -330 0 0 660 0 660 330 0 330 0 0 -660z m1000 0
l0 -660 -330 0 -330 0 0 660 0 660 330 0 330 0 0 -660z m1340 0 l0 -660 -330
0 -330 0 0 660 0 660 330 0 330 0 0 -660z m1000 0 l0 -660 -330 0 -330 0 0
660 0 660 330 0 330 0 0 -660z m1000 0 l0 -660 -330 0 -330 0 0 660 0 660 330
0 330 0 0 -660z"/>
</g>
</svg>
